<svg width="300" height="150" viewBox="0 0 300 150" fill="none" xmlns="http://www.w3.org/2000/svg">
<g filter="url(#filter0_d)">
<path d="M89.1548 86.5103C67.1736 73.8194 75.8029 78.8015 60.0368 69.699C44.2707 60.5965 46.9052 62.1175 32.0607 53.547C41.1633 37.7809 61.3233 32.3791 77.0894 41.4816C92.8554 50.5842 98.2573 70.7442 89.1548 86.5103Z" fill="white"/>
</g>
<g filter="url(#filter1_d)">
<path d="M32.0609 53.3484C54.0421 66.0392 45.4128 61.0571 61.1789 70.1596C76.945 79.2622 74.3105 77.7412 89.155 86.3116C80.0524 102.078 59.8924 107.48 44.1263 98.377C28.3603 89.2745 22.9584 69.1145 32.0609 53.3484Z" fill="#CD1A1A"/>
</g>
<circle cx="60.7389" cy="70.1599" r="6.08155" fill="white" stroke="black" stroke-width="3"/>
<path d="M32.2291 53.0649L54.4758 66.204" stroke="black"/>
<path d="M67.3315 73.4561L89.0873 86.3117" stroke="black"/>
<path d="M91.995 106.299L22.2 108.436L23.5885 60.7306L98.0122 77.8129L91.995 106.299Z" stroke="black"/>
<circle cx="30.8431" cy="119.637" r="5.60558" fill="#713131" stroke="black"/>
<circle cx="78.1614" cy="119.637" r="5.60558" fill="#713131" stroke="black"/>
<line x1="31.3431" y1="108.951" x2="31.3431" y2="121.163" stroke="black"/>
<line x1="78.6614" y1="107.425" x2="78.6614" y2="121.163" stroke="black"/>
<path d="M22.448 101.32L32.3697 108.188" stroke="black"/>
<path d="M22.448 93.6877L39.2384 107.425" stroke="black"/>
<path d="M23.2112 87.5825L48.3967 107.426" stroke="black"/>
<path d="M23.2112 80.7134L59.0814 107.425" stroke="black"/>
<path d="M23.2112 73.0813L71.0493 106.702" stroke="black"/>
<path d="M23.211 66.2131L80.1403 106.811" stroke="black"/>
<path d="M30.08 62.3965L88.8461 105.899" stroke="black"/>
<path d="M45.0387 65.6019L92.6621 101.32" stroke="black"/>
<path d="M56.7918 68.5025L94.1885 95.9774" stroke="black"/>
<path d="M67.4765 70.9745L94.8645 90.9356" stroke="black"/>
<rect x="22.9836" y="52.9128" width="2.64625" height="56.0669" transform="rotate(2.24666 22.9836 52.9128)" fill="black"/>
<rect x="24.7327" y="52.884" width="2.64625" height="14.1049" transform="rotate(117.506 24.7327 52.884)" fill="black"/>
<g filter="url(#filter2_ddd)">
<path d="M113.559 85.9824V95H108.285V69.4062H118.27C120.191 69.4062 121.879 69.7578 123.332 70.4609C124.797 71.1641 125.922 72.166 126.707 73.4668C127.492 74.7559 127.885 76.2266 127.885 77.8789C127.885 80.3867 127.023 82.3672 125.301 83.8203C123.59 85.2617 121.217 85.9824 118.182 85.9824H113.559ZM113.559 81.7109H118.27C119.664 81.7109 120.725 81.3828 121.451 80.7266C122.189 80.0703 122.559 79.1328 122.559 77.9141C122.559 76.6602 122.189 75.6465 121.451 74.873C120.713 74.0996 119.693 73.7012 118.393 73.6777H113.559V81.7109ZM152.547 82.7832C152.547 85.3027 152.102 87.5117 151.211 89.4102C150.32 91.3086 149.043 92.7734 147.379 93.8047C145.727 94.8359 143.828 95.3516 141.684 95.3516C139.562 95.3516 137.67 94.8418 136.006 93.8223C134.342 92.8027 133.053 91.3496 132.139 89.4629C131.225 87.5645 130.762 85.3848 130.75 82.9238V81.6582C130.75 79.1387 131.201 76.9238 132.104 75.0137C133.018 73.0918 134.301 71.6211 135.953 70.6016C137.617 69.5703 139.516 69.0547 141.648 69.0547C143.781 69.0547 145.674 69.5703 147.326 70.6016C148.99 71.6211 150.273 73.0918 151.176 75.0137C152.09 76.9238 152.547 79.1328 152.547 81.6406V82.7832ZM147.203 81.623C147.203 78.9395 146.723 76.9004 145.762 75.5059C144.801 74.1113 143.43 73.4141 141.648 73.4141C139.879 73.4141 138.514 74.1055 137.553 75.4883C136.592 76.8594 136.105 78.875 136.094 81.5352V82.7832C136.094 85.3965 136.574 87.4238 137.535 88.8652C138.496 90.3066 139.879 91.0273 141.684 91.0273C143.453 91.0273 144.812 90.3359 145.762 88.9531C146.711 87.5586 147.191 85.5312 147.203 82.8711V81.623ZM164.395 84.7344L161.652 87.6875V95H156.379V69.4062H161.652V81.0078L163.973 77.8262L170.494 69.4062H176.98L167.893 80.7793L177.244 95H170.969L164.395 84.7344ZM194.629 83.9082H184.504V90.7637H196.387V95H179.23V69.4062H196.352V73.6777H184.504V79.7773H194.629V83.9082Z" fill="black"/>
<path d="M212.752 88.2852C212.752 87.2891 212.4 86.5273 211.697 86C210.994 85.4609 209.729 84.8984 207.9 84.3125C206.072 83.7148 204.625 83.1289 203.559 82.5547C200.652 80.9844 199.199 78.8691 199.199 76.209C199.199 74.8262 199.586 73.5957 200.359 72.5176C201.145 71.4277 202.264 70.5781 203.717 69.9688C205.182 69.3594 206.822 69.0547 208.639 69.0547C210.467 69.0547 212.096 69.3887 213.525 70.0566C214.955 70.7129 216.062 71.6445 216.848 72.8516C217.645 74.0586 218.043 75.4297 218.043 76.9648H212.77C212.77 75.793 212.4 74.8848 211.662 74.2402C210.924 73.584 209.887 73.2559 208.551 73.2559C207.262 73.2559 206.26 73.5312 205.545 74.082C204.83 74.6211 204.473 75.3359 204.473 76.2266C204.473 77.0586 204.889 77.7559 205.721 78.3184C206.564 78.8809 207.801 79.4082 209.43 79.9004C212.43 80.8027 214.615 81.9219 215.986 83.2578C217.357 84.5938 218.043 86.2578 218.043 88.25C218.043 90.4648 217.205 92.2051 215.529 93.4707C213.854 94.7246 211.598 95.3516 208.762 95.3516C206.793 95.3516 205 94.9941 203.383 94.2793C201.766 93.5527 200.529 92.5625 199.674 91.3086C198.83 90.0547 198.408 88.6016 198.408 86.9492H203.699C203.699 89.7734 205.387 91.1855 208.762 91.1855C210.016 91.1855 210.994 90.9336 211.697 90.4297C212.4 89.9141 212.752 89.1992 212.752 88.2852ZM242.459 95H237.186V84.0312H226.902V95H221.629V69.4062H226.902V79.7773H237.186V69.4062H242.459V95ZM268.105 82.7832C268.105 85.3027 267.66 87.5117 266.77 89.4102C265.879 91.3086 264.602 92.7734 262.938 93.8047C261.285 94.8359 259.387 95.3516 257.242 95.3516C255.121 95.3516 253.229 94.8418 251.564 93.8223C249.9 92.8027 248.611 91.3496 247.697 89.4629C246.783 87.5645 246.32 85.3848 246.309 82.9238V81.6582C246.309 79.1387 246.76 76.9238 247.662 75.0137C248.576 73.0918 249.859 71.6211 251.512 70.6016C253.176 69.5703 255.074 69.0547 257.207 69.0547C259.34 69.0547 261.232 69.5703 262.885 70.6016C264.549 71.6211 265.832 73.0918 266.734 75.0137C267.648 76.9238 268.105 79.1328 268.105 81.6406V82.7832ZM262.762 81.623C262.762 78.9395 262.281 76.9004 261.32 75.5059C260.359 74.1113 258.988 73.4141 257.207 73.4141C255.438 73.4141 254.072 74.1055 253.111 75.4883C252.15 76.8594 251.664 78.875 251.652 81.5352V82.7832C251.652 85.3965 252.133 87.4238 253.094 88.8652C254.055 90.3066 255.438 91.0273 257.242 91.0273C259.012 91.0273 260.371 90.3359 261.32 88.9531C262.27 87.5586 262.75 85.5312 262.762 82.8711V81.623ZM277.211 85.9824V95H271.938V69.4062H281.922C283.844 69.4062 285.531 69.7578 286.984 70.4609C288.449 71.1641 289.574 72.166 290.359 73.4668C291.145 74.7559 291.537 76.2266 291.537 77.8789C291.537 80.3867 290.676 82.3672 288.953 83.8203C287.242 85.2617 284.869 85.9824 281.834 85.9824H277.211ZM277.211 81.7109H281.922C283.316 81.7109 284.377 81.3828 285.104 80.7266C285.842 80.0703 286.211 79.1328 286.211 77.9141C286.211 76.6602 285.842 75.6465 285.104 74.873C284.365 74.0996 283.346 73.7012 282.045 73.6777H277.211V81.7109Z" fill="#FF0000"/>
</g>
<line x1="146" y1="103.5" x2="253" y2="103.5" stroke="black" stroke-width="7"/>
<line x1="160" y1="110.5" x2="238" y2="110.5" stroke="black"/>
<line x1="160" y1="110.5" x2="238" y2="110.5" stroke="#FF0000" stroke-width="7"/>
<line x1="177" y1="117.5" x2="221" y2="117.5" stroke="white" stroke-width="7"/>
<defs>
<filter id="filter0_d" x="28.0608" y="20" width="81.5756" height="69.5103" filterUnits="userSpaceOnUse" color-interpolation-filters="sRGB">
<feFlood flood-opacity="0" result="BackgroundImageFix"/>
<feColorMatrix in="SourceAlpha" type="matrix" values="0 0 0 0 0 0 0 0 0 0 0 0 0 0 0 0 0 0 127 0"/>
<feOffset dy="-1"/>
<feGaussianBlur stdDeviation="2"/>
<feColorMatrix type="matrix" values="0 0 0 0 0 0 0 0 0 0 0 0 0 0 0 0 0 0 0.25 0"/>
<feBlend mode="normal" in2="BackgroundImageFix" result="effect1_dropShadow"/>
<feBlend mode="normal" in="SourceGraphic" in2="effect1_dropShadow" result="shape"/>
</filter>
<filter id="filter1_d" x="11.5793" y="50.3484" width="81.5756" height="69.5103" filterUnits="userSpaceOnUse" color-interpolation-filters="sRGB">
<feFlood flood-opacity="0" result="BackgroundImageFix"/>
<feColorMatrix in="SourceAlpha" type="matrix" values="0 0 0 0 0 0 0 0 0 0 0 0 0 0 0 0 0 0 127 0"/>
<feOffset dy="1"/>
<feGaussianBlur stdDeviation="2"/>
<feColorMatrix type="matrix" values="0 0 0 0 0 0 0 0 0 0 0 0 0 0 0 0 0 0 0.25 0"/>
<feBlend mode="normal" in2="BackgroundImageFix" result="effect1_dropShadow"/>
<feBlend mode="normal" in="SourceGraphic" in2="effect1_dropShadow" result="shape"/>
</filter>
<filter id="filter2_ddd" x="104.285" y="66.0547" width="191.252" height="36.2969" filterUnits="userSpaceOnUse" color-interpolation-filters="sRGB">
<feFlood flood-opacity="0" result="BackgroundImageFix"/>
<feColorMatrix in="SourceAlpha" type="matrix" values="0 0 0 0 0 0 0 0 0 0 0 0 0 0 0 0 0 0 127 0"/>
<feOffset dy="3"/>
<feGaussianBlur stdDeviation="2"/>
<feColorMatrix type="matrix" values="0 0 0 0 0 0 0 0 0 0 0 0 0 0 0 0 0 0 0.25 0"/>
<feBlend mode="normal" in2="BackgroundImageFix" result="effect1_dropShadow"/>
<feColorMatrix in="SourceAlpha" type="matrix" values="0 0 0 0 0 0 0 0 0 0 0 0 0 0 0 0 0 0 127 0"/>
<feOffset dy="2"/>
<feGaussianBlur stdDeviation="2"/>
<feColorMatrix type="matrix" values="0 0 0 0 0 0 0 0 0 0 0 0 0 0 0 0 0 0 0.25 0"/>
<feBlend mode="normal" in2="effect1_dropShadow" result="effect2_dropShadow"/>
<feColorMatrix in="SourceAlpha" type="matrix" values="0 0 0 0 0 0 0 0 0 0 0 0 0 0 0 0 0 0 127 0"/>
<feOffset dy="1"/>
<feGaussianBlur stdDeviation="2"/>
<feColorMatrix type="matrix" values="0 0 0 0 1 0 0 0 0 1 0 0 0 0 1 0 0 0 0.25 0"/>
<feBlend mode="normal" in2="effect2_dropShadow" result="effect3_dropShadow"/>
<feBlend mode="normal" in="SourceGraphic" in2="effect3_dropShadow" result="shape"/>
</filter>
</defs>
</svg>
