<svg width="300" height="150" viewBox="0 0 300 150" fill="none" xmlns="http://www.w3.org/2000/svg">
<g filter="url(#filter0_d)">
<path d="M90.9984 63.9151C81.7374 58.5683 85.3731 60.6673 78.7306 56.8323C72.0881 52.9973 73.1981 53.6381 66.9439 50.0273C70.7789 43.3848 79.2726 41.1089 85.9151 44.9439C92.5575 48.779 94.8334 57.2727 90.9984 63.9151Z" fill="white"/>
</g>
<g filter="url(#filter1_d)">
<path d="M66.9439 49.9435C76.2049 55.2903 72.5692 53.1913 79.2117 57.0263C85.8541 60.8614 84.7442 60.2205 90.9984 63.8314C87.1634 70.4739 78.6697 72.7497 72.0272 68.9147C65.3847 65.0797 63.1088 56.586 66.9439 49.9435Z" fill="#CD1A1A"/>
</g>
<circle cx="79.0264" cy="57.0265" r="2.69421" fill="white" stroke="black"/>
<path d="M67.0148 49.824L76.3876 55.3597" stroke="black"/>
<path d="M81.804 58.4153L90.97 63.8316" stroke="black"/>
<g filter="url(#filter2_d)">
<path d="M235.817 63.5997C226.312 58.1116 230.043 60.2661 223.225 56.3298C216.407 52.3934 217.547 53.0512 211.127 49.3449C215.064 42.527 223.782 40.191 230.6 44.1274C237.418 48.0637 239.753 56.7817 235.817 63.5997Z" fill="white"/>
</g>
<g filter="url(#filter3_d)">
<path d="M211.127 49.259C220.633 54.7471 216.901 52.5926 223.719 56.5289C230.537 60.4652 229.398 59.8075 235.817 63.5137C231.881 70.3316 223.163 72.6676 216.345 68.7313C209.527 64.795 207.191 56.0769 211.127 49.259Z" fill="black"/>
</g>
<circle cx="223.529" cy="56.5291" r="2.77858" fill="white" stroke="black"/>
<path d="M211.2 49.1364L220.821 54.8183" stroke="black"/>
<path d="M226.38 57.9546L235.788 63.5139" stroke="black"/>
<g filter="url(#filter4_ddd)">
<path d="M45.2188 62.9766V75H38.1875V40.875H51.5C54.0625 40.875 56.3125 41.3438 58.25 42.2812C60.2031 43.2188 61.7031 44.5547 62.75 46.2891C63.7969 48.0078 64.3203 49.9688 64.3203 52.1719C64.3203 55.5156 63.1719 58.1562 60.875 60.0938C58.5938 62.0156 55.4297 62.9766 51.3828 62.9766H45.2188ZM45.2188 57.2812H51.5C53.3594 57.2812 54.7734 56.8438 55.7422 55.9688C56.7266 55.0938 57.2188 53.8438 57.2188 52.2188C57.2188 50.5469 56.7266 49.1953 55.7422 48.1641C54.7578 47.1328 53.3984 46.6016 51.6641 46.5703H45.2188V57.2812ZM103.766 61.3125L100.109 65.25V75H93.0781V40.875H100.109V56.3438L103.203 52.1016L111.898 40.875H120.547L108.43 56.0391L120.898 75H112.531L103.766 61.3125ZM144.078 60.2109H130.578V69.3516H146.422V75H123.547V40.875H146.375V46.5703H130.578V54.7031H144.078V60.2109Z" fill="white"/>
<path d="M168.242 66.0469C168.242 64.7188 167.773 63.7031 166.836 63C165.898 62.2812 164.211 61.5312 161.773 60.75C159.336 59.9531 157.406 59.1719 155.984 58.4062C152.109 56.3125 150.172 53.4922 150.172 49.9453C150.172 48.1016 150.688 46.4609 151.719 45.0234C152.766 43.5703 154.258 42.4375 156.195 41.625C158.148 40.8125 160.336 40.4062 162.758 40.4062C165.195 40.4062 167.367 40.8516 169.273 41.7422C171.18 42.6172 172.656 43.8594 173.703 45.4688C174.766 47.0781 175.297 48.9062 175.297 50.9531H168.266C168.266 49.3906 167.773 48.1797 166.789 47.3203C165.805 46.4453 164.422 46.0078 162.641 46.0078C160.922 46.0078 159.586 46.375 158.633 47.1094C157.68 47.8281 157.203 48.7812 157.203 49.9688C157.203 51.0781 157.758 52.0078 158.867 52.7578C159.992 53.5078 161.641 54.2109 163.812 54.8672C167.812 56.0703 170.727 57.5625 172.555 59.3438C174.383 61.125 175.297 63.3438 175.297 66C175.297 68.9531 174.18 71.2734 171.945 72.9609C169.711 74.6328 166.703 75.4688 162.922 75.4688C160.297 75.4688 157.906 74.9922 155.75 74.0391C153.594 73.0703 151.945 71.75 150.805 70.0781C149.68 68.4062 149.117 66.4688 149.117 64.2656H156.172C156.172 68.0312 158.422 69.9141 162.922 69.9141C164.594 69.9141 165.898 69.5781 166.836 68.9062C167.773 68.2188 168.242 67.2656 168.242 66.0469ZM207.852 75H200.82V60.375H187.109V75H180.078V40.875H187.109V54.7031H200.82V40.875H207.852V75ZM244.953 62.9766V75H237.922V40.875H251.234C253.797 40.875 256.047 41.3438 257.984 42.2812C259.938 43.2188 261.438 44.5547 262.484 46.2891C263.531 48.0078 264.055 49.9688 264.055 52.1719C264.055 55.5156 262.906 58.1562 260.609 60.0938C258.328 62.0156 255.164 62.9766 251.117 62.9766H244.953ZM244.953 57.2812H251.234C253.094 57.2812 254.508 56.8438 255.477 55.9688C256.461 55.0938 256.953 53.8438 256.953 52.2188C256.953 50.5469 256.461 49.1953 255.477 48.1641C254.492 47.1328 253.133 46.6016 251.398 46.5703H244.953V57.2812Z" fill="#FF0000"/>
</g>
<line x1="53.4476" y1="83.604" x2="246.462" y2="83.604" stroke="black" stroke-width="7"/>
<line x1="79" y1="93.5" x2="219.671" y2="93.5" stroke="#FF0000" stroke-width="7"/>
<path d="M109.062 104.5H188.667" stroke="white" stroke-width="7"/>
<defs>
<filter id="filter0_d" x="62.9438" y="38.0811" width="33.9175" height="28.8341" filterUnits="userSpaceOnUse" color-interpolation-filters="sRGB">
<feFlood flood-opacity="0" result="BackgroundImageFix"/>
<feColorMatrix in="SourceAlpha" type="matrix" values="0 0 0 0 0 0 0 0 0 0 0 0 0 0 0 0 0 0 127 0"/>
<feOffset dy="-1"/>
<feGaussianBlur stdDeviation="2"/>
<feColorMatrix type="matrix" values="0 0 0 0 0 0 0 0 0 0 0 0 0 0 0 0 0 0 0.25 0"/>
<feBlend mode="normal" in2="BackgroundImageFix" result="effect1_dropShadow"/>
<feBlend mode="normal" in="SourceGraphic" in2="effect1_dropShadow" result="shape"/>
</filter>
<filter id="filter1_d" x="61.0809" y="46.9436" width="33.9174" height="28.8341" filterUnits="userSpaceOnUse" color-interpolation-filters="sRGB">
<feFlood flood-opacity="0" result="BackgroundImageFix"/>
<feColorMatrix in="SourceAlpha" type="matrix" values="0 0 0 0 0 0 0 0 0 0 0 0 0 0 0 0 0 0 127 0"/>
<feOffset dy="1"/>
<feGaussianBlur stdDeviation="2"/>
<feColorMatrix type="matrix" values="0 0 0 0 0 0 0 0 0 0 0 0 0 0 0 0 0 0 0.25 0"/>
<feBlend mode="normal" in2="BackgroundImageFix" result="effect1_dropShadow"/>
<feBlend mode="normal" in="SourceGraphic" in2="effect1_dropShadow" result="shape"/>
</filter>
<filter id="filter2_d" x="207.127" y="37.2151" width="34.602" height="29.3844" filterUnits="userSpaceOnUse" color-interpolation-filters="sRGB">
<feFlood flood-opacity="0" result="BackgroundImageFix"/>
<feColorMatrix in="SourceAlpha" type="matrix" values="0 0 0 0 0 0 0 0 0 0 0 0 0 0 0 0 0 0 127 0"/>
<feOffset dy="-1"/>
<feGaussianBlur stdDeviation="2"/>
<feColorMatrix type="matrix" values="0 0 0 0 0 0 0 0 0 0 0 0 0 0 0 0 0 0 0.25 0"/>
<feBlend mode="normal" in2="BackgroundImageFix" result="effect1_dropShadow"/>
<feBlend mode="normal" in="SourceGraphic" in2="effect1_dropShadow" result="shape"/>
</filter>
<filter id="filter3_d" x="205.215" y="46.259" width="34.602" height="29.3844" filterUnits="userSpaceOnUse" color-interpolation-filters="sRGB">
<feFlood flood-opacity="0" result="BackgroundImageFix"/>
<feColorMatrix in="SourceAlpha" type="matrix" values="0 0 0 0 0 0 0 0 0 0 0 0 0 0 0 0 0 0 127 0"/>
<feOffset dy="1"/>
<feGaussianBlur stdDeviation="2"/>
<feColorMatrix type="matrix" values="0 0 0 0 0 0 0 0 0 0 0 0 0 0 0 0 0 0 0.25 0"/>
<feBlend mode="normal" in2="BackgroundImageFix" result="effect1_dropShadow"/>
<feBlend mode="normal" in="SourceGraphic" in2="effect1_dropShadow" result="shape"/>
</filter>
<filter id="filter4_ddd" x="34.1875" y="37.4062" width="233.867" height="45.0625" filterUnits="userSpaceOnUse" color-interpolation-filters="sRGB">
<feFlood flood-opacity="0" result="BackgroundImageFix"/>
<feColorMatrix in="SourceAlpha" type="matrix" values="0 0 0 0 0 0 0 0 0 0 0 0 0 0 0 0 0 0 127 0"/>
<feOffset dy="3"/>
<feGaussianBlur stdDeviation="2"/>
<feColorMatrix type="matrix" values="0 0 0 0 0 0 0 0 0 0 0 0 0 0 0 0 0 0 0.25 0"/>
<feBlend mode="normal" in2="BackgroundImageFix" result="effect1_dropShadow"/>
<feColorMatrix in="SourceAlpha" type="matrix" values="0 0 0 0 0 0 0 0 0 0 0 0 0 0 0 0 0 0 127 0"/>
<feOffset dy="2"/>
<feGaussianBlur stdDeviation="2"/>
<feColorMatrix type="matrix" values="0 0 0 0 0 0 0 0 0 0 0 0 0 0 0 0 0 0 0.25 0"/>
<feBlend mode="normal" in2="effect1_dropShadow" result="effect2_dropShadow"/>
<feColorMatrix in="SourceAlpha" type="matrix" values="0 0 0 0 0 0 0 0 0 0 0 0 0 0 0 0 0 0 127 0"/>
<feOffset dy="1"/>
<feGaussianBlur stdDeviation="2"/>
<feColorMatrix type="matrix" values="0 0 0 0 1 0 0 0 0 1 0 0 0 0 1 0 0 0 0.25 0"/>
<feBlend mode="normal" in2="effect2_dropShadow" result="effect3_dropShadow"/>
<feBlend mode="normal" in="SourceGraphic" in2="effect3_dropShadow" result="shape"/>
</filter>
</defs>
</svg>
